<svg width="64" height="64" viewBox="0 0 64 64" fill="none" xmlns="http://www.w3.org/2000/svg">
<mask id="mask0_37421_11473" style="mask-type:luminance" maskUnits="userSpaceOnUse" x="2" y="2" width="60" height="60">
<path d="M31.9997 58.6673C35.5022 58.6717 38.9711 57.9839 42.207 56.6435C45.443 55.3031 48.3821 53.3365 50.8557 50.8567C53.3355 48.3831 55.3021 45.4439 56.6425 42.208C57.9829 38.9721 58.6707 35.5032 58.6664 32.0007C58.6707 28.4981 57.9829 25.0292 56.6425 21.7933C55.3021 18.5574 53.3355 15.6182 50.8557 13.1447C48.3821 10.6649 45.443 8.6983 42.207 7.35789C38.9711 6.01749 35.5022 5.32969 31.9997 5.334C28.4971 5.32969 25.0283 6.01749 21.7923 7.35789C18.5564 8.6983 15.6173 10.6649 13.1437 13.1447C10.6639 15.6182 8.69732 18.5574 7.35691 21.7933C6.01651 25.0292 5.32871 28.4981 5.33303 32.0007C5.32871 35.5032 6.01651 38.9721 7.35691 42.208C8.69732 45.4439 10.6639 48.3831 13.1437 50.8567C15.6173 53.3365 18.5564 55.3031 21.7923 56.6435C25.0283 57.9839 28.4971 58.6717 31.9997 58.6673Z" fill="white" stroke="white" stroke-width="5.33333" stroke-linejoin="round"/>
<path d="M21.333 32L29.333 40L45.333 24" stroke="black" stroke-width="5.33333" stroke-linecap="round" stroke-linejoin="round"/>
</mask>
<g mask="url(#mask0_37421_11473)">
<path d="M0 0H64V64H0V0Z" fill="#44AB09"/>
</g>
</svg>
