<svg width="40" height="40" viewBox="0 0 40 40" fill="none" xmlns="http://www.w3.org/2000/svg">
<path d="M20 0.5C30.7696 0.5 39.5 9.23045 39.5 20C39.5 30.7696 30.7696 39.5 20 39.5C9.23045 39.5 0.5 30.7696 0.5 20C0.5 9.23045 9.23045 0.5 20 0.5Z" stroke="#252B37"/>
<path d="M26.2758 14.2534C26.1431 14.1848 26.014 14.1096 25.8888 14.0281C25.5248 13.7875 25.1911 13.5039 24.8948 13.1836C24.1535 12.3354 23.8766 11.4749 23.7746 10.8725H23.7787C23.6936 10.3724 23.7288 10.0488 23.7341 10.0488H20.3577V23.1048C20.3577 23.2801 20.3577 23.4533 20.3503 23.6245C20.3503 23.6458 20.3483 23.6655 20.347 23.6884C20.347 23.6978 20.347 23.7076 20.345 23.7175C20.345 23.7199 20.345 23.7224 20.345 23.7248C20.3094 24.1933 20.1592 24.6458 19.9077 25.0426C19.6562 25.4394 19.311 25.7683 18.9025 26.0003C18.4768 26.2425 17.9953 26.3696 17.5055 26.369C15.9324 26.369 14.6574 25.0862 14.6574 23.502C14.6574 21.9179 15.9324 20.6351 17.5055 20.6351C17.8033 20.6348 18.0993 20.6817 18.3824 20.774L18.3865 17.3361C17.527 17.2251 16.6538 17.2934 15.822 17.5367C14.9902 17.7801 14.2178 18.1932 13.5537 18.7499C12.9717 19.2556 12.4825 19.8589 12.1079 20.5327C11.9654 20.7785 11.4277 21.7659 11.3625 23.3685C11.3216 24.2782 11.5948 25.2205 11.725 25.61V25.6182C11.8069 25.8476 12.1243 26.6303 12.6416 27.2901C13.0587 27.8193 13.5515 28.2842 14.1041 28.6699V28.6617L14.1123 28.6699C15.7469 29.7806 17.5592 29.7077 17.5592 29.7077C17.8729 29.695 18.9238 29.7077 20.1173 29.1421C21.441 28.515 22.1946 27.5808 22.1946 27.5808C22.676 27.0226 23.0588 26.3865 23.3266 25.6997C23.6321 24.8966 23.7341 23.9333 23.7341 23.5483V16.6218C23.7751 16.6464 24.3206 17.0072 24.3206 17.0072C24.3206 17.0072 25.1065 17.511 26.3328 17.8391C27.2125 18.0725 28.3978 18.1217 28.3978 18.1217V14.7698C27.9825 14.8149 27.1392 14.6838 26.2758 14.2534Z" fill="#FDFDFD"/>
</svg>
